HIERARCHY
ROOT Hips
{
	OFFSET 0.00 0.00 0.00
	CHANNELS 6 Xposition Yposition Zposition Xrotation Yrotation Zrotation
	JOINT Spine
	{
		OFFSET 0.00000 4.88528 0.00000
		CHANNELS 3 Xrotation Yrotation Zrotation
		JOINT Head
		{
			OFFSET 0.00000 16.49416 0.00000
			CHANNELS 3 Xrotation Yrotation Zrotation
			End Site
			{
				OFFSET 0.00000 4.52755 0.00000
			}
		}
		JOINT LeftShoulder
		{
			OFFSET 0.00000 10.66345 0.00000
			CHANNELS 3 Xrotation Yrotation Zrotation
			JOINT LeftArm
			{
				OFFSET 7.53191 0.00000 0.00000
				CHANNELS 3 Xrotation Yrotation Zrotation
				JOINT LeftForeArm
				{
					OFFSET 10.22920 0.00000 0.00000
					CHANNELS 3 Yrotation Zrotation Xrotation
					JOINT LeftHand
					{
						OFFSET 8.67349 0.00000 0.00000
						CHANNELS 3 Xrotation Yrotation Zrotation
						JOINT LeftHandThumb1
						{
							OFFSET 0.00000 0.00000 0.00000
							CHANNELS 3 Xrotation Zrotation Yrotation
							End Site
							{
								OFFSET 0.00000 0.00000 3.93700
							}
						}
						End Site
						{
							OFFSET 3.93700 0.00000 0.00000
						}
					}
				}
			}
		}
		JOINT RightShoulder
		{
			OFFSET 0.00000 10.66345 0.00000
			CHANNELS 3 Xrotation Yrotation Zrotation
			JOINT RightArm
			{
				OFFSET -7.53191 0.00000 0.00000
				CHANNELS 3 Xrotation Yrotation Zrotation
				JOINT RightForeArm
				{
					OFFSET -10.22920 0.00000 0.00000
					CHANNELS 3 Yrotation Zrotation Xrotation
					JOINT RightHand
					{
						OFFSET -8.67349 0.00000 0.00000
						CHANNELS 3 Xrotation Yrotation Zrotation
						JOINT RightHandThumb1
						{
							OFFSET 0.00000 0.00000 0.00000
							CHANNELS 3 Xrotation Zrotation Yrotation
							End Site
							{
								OFFSET 0.00000 0.00000 3.93700
							}
						}
						End Site
						{
							OFFSET -3.93700 0.00000 0.00000
						}
					}
				}
			}
		}
	}
	JOINT LeftUpLeg
	{
		OFFSET 2.67219 0.00000 0.00000
		CHANNELS 3 Xrotation Yrotation Zrotation
		JOINT LeftLeg
		{
			OFFSET 0.00000 -16.26339 0.00000
			CHANNELS 3 Xrotation Yrotation Zrotation
			JOINT LeftFoot
			{
				OFFSET 0.00000 -14.32816 0.00000
				CHANNELS 3 Xrotation Yrotation Zrotation
				JOINT LeftToeBase
				{
					OFFSET 0.00000 -1.30219 4.85985
					CHANNELS 3 Xrotation Yrotation Zrotation
					End Site
					{
						OFFSET 0.00000 0.00000 2.95275
					}
				}
			}
		}
	}
	JOINT RightUpLeg
	{
		OFFSET -2.67219 0.00000 0.00000
		CHANNELS 3 Xrotation Yrotation Zrotation
		JOINT RightLeg
		{
			OFFSET 0.00000 -16.26339 0.00000
			CHANNELS 3 Xrotation Yrotation Zrotation
			JOINT RightFoot
			{
				OFFSET 0.00000 -14.32816 0.00000
				CHANNELS 3 Xrotation Yrotation Zrotation
				JOINT RightToeBase
				{
					OFFSET 0.00000 -1.30219 4.85985
					CHANNELS 3 Xrotation Yrotation Zrotation
					End Site
					{
						OFFSET 0.00000 0.00000 2.95275
					}
				}
			}
		}
	}
}
MOTION
Frames: 17
Frame Time: 0.008333
 -0.0578 32.9097 0.9803 2.8102 3.2571 -1.7728 -5.2196 -7.3629 -1.6861 14.3875 -2.0911 0.5870 36.6656 33.8728 14.9804 -75.1908 -4.3352 -29.0267 2.9943 0.0000 5.8697 0.4085 -3.9955 5.8419 33.1476 -0.0000 26.2537 -7.8884 -6.2210 -30.2834 -23.2159 -2.9337 38.0367 1.1112 -0.0000 10.8216 0.0881 5.5397 -0.9127 32.8623 0.0000 -24.3270 4.7548 -5.4499 1.2938 -4.1201 0.0000 0.0000 -2.0141 12.3369 -12.4308 -11.6029 -0.0000 -0.0000 4.4484 -3.9154 3.6782 -3.4751 0.0000 0.0000 -4.8157 -10.1078 4.3441 -2.3491 -0.0000 -0.0000
 -0.0571 32.9102 0.9822 2.8129 3.2804 -1.7718 -5.2066 -7.3911 -1.6820 14.4056 -2.0822 0.5491 36.6450 33.8558 14.9873 -75.1886 -4.2595 -28.9575 2.9508 0.0000 5.9309 0.3978 -3.9522 5.7526 33.1476 -0.0000 26.2537 -7.8430 -6.2358 -30.2832 -23.2211 -2.8860 37.9686 1.1176 -0.0000 10.8946 0.1176 5.6459 -1.1955 32.8623 0.0000 -24.3270 4.7436 -5.4370 1.2921 -4.0989 -0.0000 0.0000 -2.0290 12.2995 -12.4373 -11.6083 0.0000 -0.0000 4.4526 -3.9434 3.6777 -3.4739 -0.0000 -0.0000 -4.8198 -10.1167 4.3784 -2.3257 -0.0000 0.0000
 -0.0564 32.9100 0.9832 2.8261 3.3068 -1.7579 -5.2005 -7.4044 -1.7036 14.4083 -2.0824 0.5460 36.6443 33.8682 14.9807 -75.2189 -4.2352 -28.9059 2.9504 0.0000 6.0053 0.3953 -3.9527 5.7151 33.1476 -0.0000 26.2537 -7.8422 -6.2499 -30.3105 -23.1935 -2.8731 37.9455 1.1542 -0.0000 10.9064 0.1187 5.6341 -1.2092 32.8623 0.0000 -24.3270 4.7237 -5.4354 1.2776 -4.0873 0.0000 0.0000 -2.0309 12.2834 -12.4762 -11.5884 -0.0000 -0.0000 4.4437 -3.9964 3.6660 -3.4685 -0.0000 0.0000 -4.8322 -10.0975 4.3519 -2.3458 -0.0000 0.0000
 -0.0562 32.9102 0.9855 2.8377 3.3358 -1.7503 -5.2010 -7.4268 -1.7186 14.4356 -2.0973 0.5385 36.6382 33.8543 14.9755 -75.2424 -4.2035 -28.8153 2.9569 0.0000 6.0766 0.3875 -3.8844 5.7019 33.1476 -0.0000 26.2537 -7.8328 -6.2413 -30.3312 -23.1214 -2.8398 37.8989 1.1807 -0.0000 10.8647 0.1278 5.6645 -1.2947 32.8623 0.0000 -24.3270 4.7077 -5.4427 1.2699 -4.0779 -0.0000 0.0000 -2.0328 12.2631 -12.4756 -11.5807 0.0000 -0.0000 4.4414 -4.0258 3.6608 -3.4720 0.0000 -0.0000 -4.8437 -10.1066 4.3680 -2.3523 0.0000 0.0000
 -0.0553 32.9100 0.9868 2.8494 3.3668 -1.7362 -5.2007 -7.4464 -1.7430 14.4640 -2.1043 0.5365 36.5995 33.8341 15.0094 -75.2548 -4.1360 -28.7290 2.9540 0.0000 6.1313 0.3879 -3.9310 5.6400 33.1476 -0.0000 26.2537 -7.8112 -6.2440 -30.3462 -23.1101 -2.8252 37.8423 1.1897 -0.0000 10.9009 0.1118 5.6280 -1.1401 32.8623 0.0000 -24.3270 4.6844 -5.4443 1.2567 -4.0540 -0.0000 0.0000 -2.0465 12.2194 -12.4970 -11.6033 0.0000 -0.0000 4.4381 -4.0661 3.6465 -3.4737 -0.0000 0.0000 -4.8640 -10.0944 4.3681 -2.3277 0.0000 0.0000
 -0.0559 32.9100 0.9882 2.8600 3.4015 -1.7286 -5.1972 -7.4824 -1.7655 14.4958 -2.1015 0.5450 36.5757 33.8245 15.0295 -75.2730 -4.0712 -28.6274 2.9447 0.0000 6.1651 0.3873 -3.9034 5.6702 33.1476 -0.0000 26.2537 -7.7831 -6.2528 -30.3488 -23.1108 -2.7849 37.7800 1.1900 -0.0000 10.9551 0.0995 5.6143 -1.0166 32.8623 0.0000 -24.3270 4.6596 -5.4399 1.2505 -4.0253 0.0000 0.0000 -2.0615 12.1896 -12.5303 -11.5979 0.0000 -0.0000 4.4352 -4.1063 3.6427 -3.4739 0.0000 -0.0000 -4.8808 -10.1013 4.4192 -2.2907 0.0000 0.0000
 -0.0555 32.9099 0.9902 2.8692 3.4286 -1.7172 -5.1965 -7.4956 -1.7920 14.5386 -2.1167 0.5607 36.5656 33.8159 15.0627 -75.3207 -3.9883 -28.5348 2.9396 0.0000 6.2072 0.3861 -3.8877 5.6759 33.1476 -0.0000 26.2537 -7.7669 -6.2617 -30.3527 -23.0530 -2.7071 37.7106 1.1693 -0.0000 11.1032 0.0836 5.5944 -0.8578 32.8623 0.0000 -24.3270 4.6417 -5.4467 1.2359 -4.0010 -0.0000 -0.0000 -2.1530 12.1731 -12.3223 -11.2955 0.0000 0.0000 4.4319 -4.1376 3.6338 -3.4715 -0.0000 -0.0000 -4.9004 -10.1100 4.3989 -2.2667 0.0000 -0.0000
 -0.0559 32.9094 0.9937 2.8693 3.4613 -1.7086 -5.1890 -7.5123 -1.8156 14.5853 -2.1398 0.5662 36.5719 33.8031 15.0774 -75.3722 -3.9371 -28.4154 2.9562 0.0000 6.1616 0.3797 -3.8574 5.6260 33.1476 -0.0000 26.2537 -7.7295 -6.2867 -30.3593 -23.0116 -2.6013 37.6354 1.1188 -0.0000 11.1261 0.0932 5.5613 -0.9615 32.8623 0.0000 -24.3270 4.6369 -5.4530 1.2303 -3.9801 0.0000 0.0000 -2.1723 12.1457 -12.3327 -11.2568 -0.0000 0.0000 4.4501 -4.1779 3.6301 -3.4840 0.0000 -0.0000 -4.9043 -10.1082 4.4113 -2.2641 0.0000 0.0000
 -0.0561 32.9085 0.9967 2.8684 3.5023 -1.7069 -5.1751 -7.5330 -1.8323 14.6220 -2.1807 0.5760 36.5580 33.8025 15.1213 -75.4520 -3.8495 -28.3185 2.9898 0.0000 6.1863 0.3825 -3.8302 5.7068 33.1476 -0.0000 26.2537 -7.7229 -6.3006 -30.3923 -22.9635 -2.5315 37.5810 1.0633 -0.0000 11.2338 0.0666 5.4470 -0.7011 32.8623 0.0000 -24.3270 4.6263 -5.4601 1.2356 -3.9561 -0.0000 -0.0000 -2.1174 12.1067 -12.5873 -11.5714 0.0000 0.0000 4.4667 -4.2427 3.6297 -3.4908 -0.0000 0.0000 -4.9094 -10.0886 4.4652 -2.3266 0.0000 -0.0000
 -0.0558 32.9075 0.9997 2.8733 3.5388 -1.6943 -5.1687 -7.5396 -1.8655 14.6580 -2.2219 0.6043 36.5163 33.8085 15.1969 -75.5186 -3.7362 -28.2314 2.9894 0.0000 6.1914 0.3906 -3.9129 5.7056 33.1476 -0.0000 26.2537 -7.7106 -6.3384 -30.4248 -22.9786 -2.4947 37.5161 1.0501 -0.0000 11.2473 0.0411 5.3528 -0.4410 32.8623 0.0000 -24.3270 4.6161 -5.4804 1.2214 -3.9345 -0.0000 0.0000 -2.2138 12.0937 -12.3725 -11.2463 -0.0000 -0.0000 4.4811 -4.2702 3.6162 -3.5094 -0.0000 -0.0000 -4.9252 -10.0797 4.4812 -2.2693 -0.0000 -0.0000
 -0.0557 32.9065 1.0033 2.8648 3.5784 -1.6910 -5.1455 -7.5667 -1.8797 14.6888 -2.2493 0.6025 36.4761 33.8114 15.2482 -75.5385 -3.6567 -28.1172 2.9815 0.0000 6.1729 0.3872 -3.9191 5.6472 33.1476 -0.0000 26.2537 -7.7025 -6.3366 -30.4406 -22.9320 -2.4219 37.3987 0.9644 -0.0000 11.3294 0.0752 5.4536 -0.7908 32.8623 0.0000 -24.3270 4.6149 -5.4839 1.2212 -3.9083 -0.0000 0.0000 -2.2328 12.0525 -12.3787 -11.2512 0.0000 0.0000 4.5080 -4.3197 3.6150 -3.5208 0.0000 -0.0000 -4.9313 -10.0671 4.4909 -2.2732 -0.0000 -0.0000
 -0.0564 32.9050 1.0077 2.8610 3.6157 -1.6927 -5.1227 -7.5768 -1.9030 14.7044 -2.2789 0.6478 36.4047 33.8434 15.3430 -75.6311 -3.5366 -28.0299 2.9899 0.0000 6.1944 0.3799 -3.8759 5.6021 33.1476 -0.0000 26.2537 -7.6869 -6.3822 -30.4619 -22.8897 -2.2763 37.3201 0.8351 -0.0000 11.3960 0.0528 5.3805 -0.5631 32.8623 0.0000 -24.3270 4.6235 -5.4859 1.2324 -3.9108 0.0000 0.0000 -2.1652 12.0021 -12.6181 -11.6274 -0.0000 0.0000 4.5343 -4.3565 3.6195 -3.5378 -0.0000 0.0000 -4.9396 -10.0564 4.5041 -2.2911 -0.0000 0.0000
 -0.0569 32.9034 1.0139 2.8503 3.6482 -1.6918 -5.1009 -7.5914 -1.9206 14.7473 -2.3107 0.6614 36.3504 33.8641 15.4152 -75.7298 -3.4204 -27.9113 3.0054 0.0000 6.2196 0.3727 -3.8941 5.4718 33.1476 -0.0000 26.2537 -7.6480 -6.4246 -30.4988 -22.9060 -2.1986 37.1991 0.7672 -0.0000 11.5223 0.0423 5.3534 -0.4537 32.8623 0.0000 -24.3270 4.6487 -5.5286 1.2409 -3.9217 -0.0000 -0.0000 -2.1613 11.9953 -12.6304 -11.6692 -0.0000 0.0000 4.5683 -4.3897 3.6204 -3.5543 0.0000 0.0000 -4.9395 -10.0434 4.5327 -2.3349 0.0000 -0.0000
 -0.0578 32.9017 1.0183 2.8513 3.6843 -1.6892 -5.0858 -7.6056 -1.9427 14.7798 -2.3510 0.6831 36.2917 33.8930 15.4919 -75.8845 -3.2942 -27.7792 3.0530 0.0000 6.3454 0.3653 -3.8667 5.4009 33.1476 -0.0000 26.2537 -7.6085 -6.4821 -30.5273 -22.8473 -1.9922 37.0707 0.6211 -0.0000 11.6669 0.0356 5.3154 -0.3847 32.8623 0.0000 -24.3270 4.6510 -5.5311 1.2466 -3.9156 0.0000 0.0000 -2.1733 11.9566 -12.6921 -11.6724 -0.0000 -0.0000 4.5888 -4.3894 3.6190 -3.5739 -0.0000 -0.0000 -4.9592 -10.0741 4.5596 -2.2726 -0.0000 0.0000
 -0.0581 32.8999 1.0243 2.8323 3.7147 -1.6851 -5.0487 -7.6087 -1.9613 14.7953 -2.3820 0.6961 36.1775 33.9046 15.6066 -76.0210 -3.1587 -27.6258 3.1246 0.0000 6.4142 0.3471 -3.7660 5.2695 33.1476 -0.0000 26.2537 -7.5749 -6.5307 -30.5519 -22.7445 -1.7774 36.8950 0.5015 -0.0000 11.9702 0.0352 5.2207 -0.3872 32.8623 0.0000 -24.3270 4.6845 -5.5332 1.2517 -3.9253 0.0000 0.0000 -2.1804 11.9166 -12.7310 -11.6185 -0.0000 -0.0000 4.6265 -4.4162 3.6149 -3.5789 0.0000 0.0000 -4.9766 -10.0617 4.5862 -2.3071 -0.0000 -0.0000
 -0.0578 32.8978 1.0302 2.8258 3.7490 -1.6776 -5.0270 -7.6261 -1.9875 14.8156 -2.4086 0.7298 36.0865 33.9456 15.7155 -76.1288 -3.0396 -27.4581 3.1870 0.0000 6.3536 0.3331 -3.7721 5.0494 33.1476 -0.0000 26.2537 -7.5506 -6.5780 -30.5883 -22.7148 -1.6005 36.7017 0.3887 -0.0000 12.1906 0.0132 5.1636 -0.1470 32.8623 0.0000 -24.3270 4.7118 -5.5712 1.2514 -3.9499 0.0000 0.0000 -2.1894 11.9140 -12.7317 -11.6400 -0.0000 0.0000 4.6595 -4.4151 3.6061 -3.6038 -0.0000 -0.0000 -4.9948 -10.0807 4.6080 -2.2550 -0.0000 0.0000
 -0.0577 32.8962 1.0357 2.8353 3.7836 -1.6845 -5.0200 -7.6410 -1.9952 14.8286 -2.4253 0.7454 36.0156 33.9670 15.8221 -76.3122 -2.8710 -27.2482 3.2631 0.0000 6.4203 0.3206 -3.7499 4.8902 33.1476 -0.0000 26.2537 -7.5494 -6.6174 -30.6459 -22.5642 -1.3437 36.5078 0.2664 -0.0000 12.4671 -0.0004 5.0077 0.0046 32.8623 0.0000 -24.3270 4.7140 -5.5864 1.2632 -3.9507 0.0000 0.0000 -2.2829 11.8771 -12.5514 -11.3923 -0.0000 0.0000 4.6668 -4.4215 3.6107 -3.6079 0.0000 -0.0000 -5.0104 -10.0916 4.6238 -2.2810 -0.0000 0.0000
